<svg width="70" height="56" viewBox="0 0 70 56" fill="none" xmlns="http://www.w3.org/2000/svg">
<path d="M57.4157 28C57.4157 43.1878 44.5628 55.5 28.7079 55.5C12.8529 55.5 0 43.1878 0 28C0 12.8122 12.8529 0.5 28.7079 0.5C44.5628 0.5 57.4157 12.8122 57.4157 28Z" fill="#1E1E1E"/>
<path d="M49.1573 10.8125C49.1573 7.51514 52.0624 4.8421 55.6461 4.8421C59.2297 4.8421 62.1348 7.51514 62.1348 10.8125V49.5296C62.1348 52.827 59.2297 55.5 55.6461 55.5C52.0624 55.5 49.1573 52.827 49.1573 49.5296V10.8125Z" fill="#1E1E1E"/>
<path d="M44.8315 29.4474C44.8315 36.2419 39.0212 41.75 31.8539 41.75C24.6866 41.75 18.8764 36.2419 18.8764 29.4474C18.8764 22.6528 24.6866 17.1447 31.8539 17.1447C39.0212 17.1447 44.8315 22.6528 44.8315 29.4474Z" fill="#FCFCFC"/>
<path d="M49.1573 50.977C49.1573 48.479 51.3581 46.4539 54.073 46.4539H65.0843C67.7991 46.4539 70 48.479 70 50.977C70 53.475 67.7991 55.5 65.0843 55.5H54.073C51.3581 55.5 49.1573 53.475 49.1573 50.977Z" fill="#1E1E1E"/>
</svg>
